<svg width="69" height="25" viewBox="0 0 69 25" fill="none" xmlns="http://www.w3.org/2000/svg">
<g clip-path="url(#clip0_3268_3660)">
<path d="M27.5867 1.25322C27.6699 1.32233 27.7519 1.3925 27.8333 1.46351C27.8702 1.49548 27.8702 1.49548 27.9078 1.52809C28.5246 2.0831 29.006 2.81875 29.3199 3.55915C29.3342 3.59285 29.3485 3.62655 29.3633 3.66128C29.5228 4.04216 29.6611 4.42933 29.7978 4.81782C29.8356 4.92508 29.8737 5.03224 29.9117 5.13942C29.9773 5.32424 30.0428 5.50911 30.1081 5.69402C30.2027 5.96197 30.2977 6.22983 30.3928 6.49765C30.5474 6.93326 30.7019 7.36893 30.8561 7.80464C30.8699 7.84357 30.8699 7.84357 30.884 7.88328C30.9773 8.14665 31.0705 8.41002 31.1637 8.6734C31.2103 8.80506 31.2569 8.93671 31.3035 9.06837C31.3173 9.10735 31.3173 9.10735 31.3314 9.14711C31.4853 9.58172 31.6394 10.0163 31.7936 10.4507C31.8884 10.7177 31.983 10.9846 32.0772 11.2517C32.1419 11.4347 32.2067 11.6177 32.2717 11.8006C32.3091 11.9057 32.3464 12.0109 32.3834 12.1162C32.7121 13.0509 33.0561 13.9691 34.0517 14.447C34.5136 14.6457 34.9963 14.6902 35.4815 14.5404C36.1588 14.2873 36.6578 13.8373 36.9658 13.2166C37.1435 12.8272 37.2732 12.4252 37.404 12.0204C37.4287 11.9446 37.4535 11.8688 37.4783 11.7929C37.5169 11.6749 37.5554 11.5568 37.5939 11.4387C37.7146 11.068 37.8371 10.6978 37.96 10.3278C37.9967 10.2171 38.0334 10.1065 38.0701 9.99581C38.2116 9.5691 38.3532 9.14244 38.4948 8.71578C38.5068 8.6797 38.5068 8.6797 38.519 8.6429C38.6007 8.39691 38.6823 8.15093 38.764 7.90496C38.9297 7.40596 39.0953 6.90692 39.2605 6.40778C39.3867 6.0266 39.513 5.6455 39.6396 5.26445C39.6706 5.17119 39.7015 5.07792 39.7323 4.98464C39.7783 4.84578 39.8245 4.70699 39.8709 4.56824C39.8871 4.51976 39.9032 4.47126 39.9192 4.42274C40.0499 4.02718 40.1958 3.63633 40.3988 3.26742C40.41 3.24694 40.4211 3.22646 40.4326 3.20535C41.1882 1.83029 42.4069 0.712436 43.9943 0.218088C44.1698 0.167466 44.3466 0.128428 44.5264 0.093546C44.5606 0.0865223 44.5949 0.0794986 44.6303 0.072262C45.2405 -0.0312995 45.9193 -0.0136496 46.5215 0.124682C46.5597 0.133215 46.5597 0.133215 46.5987 0.141922C47.4109 0.32968 48.1485 0.707308 48.7827 1.21443C48.8076 1.23429 48.8325 1.25416 48.8582 1.27463C49.9018 2.13184 50.5502 3.15948 51.1243 4.33034C51.2802 4.64808 51.4404 4.96385 51.6009 5.27956C51.6206 5.31822 51.6206 5.31822 51.6406 5.35767C51.6917 5.45818 51.7428 5.55868 51.7939 5.65918C51.9323 5.93137 52.0701 6.20384 52.2078 6.47633C52.2081 6.45178 52.2084 6.42724 52.2087 6.40195C52.2237 5.45394 52.3621 4.5953 52.8064 3.7364C52.8168 3.7161 52.8272 3.6958 52.8379 3.67488C53.089 3.19191 53.4227 2.76263 53.824 2.37974C53.8676 2.33806 53.9103 2.29566 53.9531 2.25321C55.3912 0.851653 57.6733 0.0979876 59.7122 0.0571807C61.0753 0.0468672 62.3557 0.285064 63.6136 0.778528C63.6403 0.788993 63.6669 0.799458 63.6944 0.810241C64.5183 1.13984 65.2743 1.62259 65.9413 2.17963C65.9583 2.19383 65.9754 2.20803 65.9929 2.22267C66.3474 2.5194 66.677 2.82625 66.9721 3.17596C67.0012 3.20932 67.0302 3.24264 67.0593 3.27594C68.5427 4.9883 69.203 7.24992 68.9667 9.4349C68.77 11.0657 68.1687 12.5978 67.0719 13.8866C67.0567 13.9045 67.0414 13.9224 67.0258 13.9408C66.631 14.3993 66.1793 14.8409 65.6753 15.1943C65.6285 15.228 65.5817 15.2618 65.535 15.2956C65.1989 15.5354 64.854 15.7457 64.4835 15.9356C64.4186 15.9691 64.3544 16.0034 64.2903 16.0382C62.3363 17.0681 59.8647 17.2915 57.7174 16.7472C56.6979 16.4763 55.7487 16.0345 54.9125 15.4241C54.8855 15.4044 54.8585 15.3847 54.8307 15.3644C54.8101 15.3494 54.7895 15.3343 54.7683 15.3188C54.7683 15.337 54.7682 15.3551 54.7682 15.3738C54.767 16.4489 54.7651 17.524 54.7624 18.5991C54.762 18.7282 54.7617 18.8574 54.7614 18.9865C54.7613 19.0122 54.7612 19.0379 54.7612 19.0644C54.7602 19.4805 54.7596 19.8965 54.7592 20.3126C54.7588 20.7397 54.7579 21.1667 54.7565 21.5938C54.7556 21.8572 54.7552 22.1206 54.7553 22.384C54.7553 22.5648 54.7548 22.7455 54.7539 22.9263C54.7534 23.0305 54.7532 23.1347 54.7535 23.2389C54.7537 23.3521 54.7531 23.4653 54.7523 23.5785C54.7527 23.6275 54.7527 23.6275 54.7531 23.6774C54.7488 24.0232 54.6141 24.298 54.3651 24.5525C54.0954 24.7984 53.7885 24.8563 53.4261 24.856C53.0724 24.8495 52.8362 24.7484 52.5812 24.5173C52.3515 24.2826 52.2321 24.0587 52.2336 23.7342C52.2335 23.7142 52.2335 23.6943 52.2335 23.6737C52.2336 23.6071 52.2342 23.5405 52.2347 23.4738C52.2348 23.4255 52.235 23.3771 52.235 23.3287C52.2353 23.2237 52.2357 23.1187 52.2364 23.0136C52.2374 22.8427 52.2379 22.6718 52.2384 22.5008C52.239 22.2847 52.2398 22.0685 52.2407 21.8524C52.2424 21.4269 52.2432 21.0015 52.2436 20.576C52.2437 20.5089 52.2438 20.4418 52.2439 20.3748C52.244 20.2389 52.2441 20.1031 52.2443 19.9673C52.2446 19.6182 52.2451 19.269 52.2456 18.9198C52.2456 18.8848 52.2457 18.8498 52.2457 18.8137C52.2466 18.2475 52.2488 17.6814 52.2515 17.1152C52.2541 16.5328 52.2552 15.9505 52.2547 15.3681C52.2545 15.0096 52.2556 14.6511 52.2584 14.2926C52.2602 14.0462 52.2604 13.7998 52.2593 13.5533C52.2588 13.4116 52.2589 13.27 52.261 13.1283C52.2705 12.4407 52.1951 11.9327 51.8282 11.3284C51.7494 11.1962 51.6824 11.0594 51.615 10.9219C51.5906 10.8738 51.5662 10.8257 51.5416 10.7776C51.4625 10.6222 51.3835 10.4668 51.3045 10.3114C51.291 10.2848 51.2775 10.2582 51.2636 10.2308C51.1275 9.9629 50.9921 9.6947 50.8569 9.42642C50.8454 9.40353 50.8338 9.38063 50.8219 9.35704C50.7639 9.2419 50.7059 9.12675 50.6478 9.01159C50.5312 8.78012 50.4145 8.54866 50.2978 8.31722C50.2862 8.29421 50.2746 8.2712 50.2627 8.24749C50.092 7.90894 49.9209 7.57055 49.7496 7.23224C49.5584 6.85442 49.3674 6.47647 49.1773 6.09813C49.1446 6.03302 49.1118 5.96794 49.079 5.90286C48.9781 5.7024 48.8777 5.50176 48.7788 5.30043C48.3249 4.37234 48.3249 4.37234 47.6854 3.54959C47.6603 3.52162 47.6351 3.49364 47.6093 3.46482C47.1681 2.9865 46.5847 2.60666 45.923 2.45985C45.8976 2.45395 45.8723 2.44805 45.8462 2.44197C45.1636 2.34085 44.5297 2.52193 43.9694 2.89185C43.7911 3.01877 43.6252 3.15684 43.4623 3.30051C43.4418 3.31764 43.4214 3.33478 43.4003 3.35244C43.2101 3.51824 43.0699 3.71968 42.9302 3.92322C42.9075 3.95625 42.8848 3.98928 42.8614 4.02331C42.7308 4.22496 42.6293 4.4286 42.5404 4.6487C42.529 4.67692 42.5176 4.70514 42.5058 4.73422C42.3608 5.0992 42.241 5.47155 42.1197 5.84389C42.0935 5.92358 42.0673 6.00326 42.0411 6.08294C41.9937 6.22692 41.9465 6.37092 41.8993 6.51495C41.7827 6.87076 41.6649 7.22618 41.5469 7.58158C41.4978 7.72948 41.4488 7.87739 41.3998 8.0253C41.1818 8.68298 40.9635 9.34055 40.7451 9.99813C40.5724 10.5184 40.3997 11.0388 40.2274 11.5592C40.1643 11.7496 40.1013 11.94 40.0381 12.1303C40.0145 12.2013 39.9909 12.2723 39.9673 12.3433C39.9561 12.3771 39.9448 12.4109 39.9333 12.4458C39.8732 12.6269 39.8135 12.8082 39.7545 12.9897C39.4346 13.9723 39.4346 13.9723 39.2059 14.3848C39.1947 14.4054 39.1835 14.4261 39.1719 14.4474C38.8229 15.0847 38.3245 15.6685 37.7095 16.0972C37.6776 16.1198 37.6457 16.1423 37.6128 16.1656C37.0008 16.5809 36.3252 16.8475 35.5813 16.969C35.5473 16.9747 35.5134 16.9805 35.4784 16.9864C34.2454 17.1169 33.036 16.8012 32.0608 16.0825C31.9225 15.9772 31.7892 15.8671 31.6574 15.7547C31.6309 15.7325 31.6044 15.7102 31.577 15.6873C31.2481 15.3968 30.977 15.0397 30.7471 14.6766C30.7349 14.6574 30.7227 14.6381 30.7101 14.6183C30.4542 14.1999 30.2829 13.7587 30.1209 13.3032C30.0979 13.2391 30.0749 13.175 30.0518 13.1109C29.9898 12.9383 29.9282 12.7655 29.8667 12.5927C29.8286 12.4858 29.7905 12.3788 29.7523 12.2719C29.6029 11.8529 29.454 11.4337 29.3055 11.0144C29.2003 10.7177 29.0951 10.4211 28.9898 10.1245C28.9741 10.0804 28.9585 10.0363 28.9428 9.99224C28.9191 9.92556 28.8955 9.85888 28.8718 9.79219C28.7838 9.5443 28.6958 9.29641 28.6078 9.04851C28.5998 9.02599 28.5918 9.00348 28.5835 8.98028C28.4531 8.61269 28.3228 8.24503 28.1925 7.87736C28.0576 7.49639 27.9224 7.11548 27.787 6.73463C27.7041 6.50142 27.6214 6.26815 27.5389 6.0348C27.4759 5.85653 27.4125 5.67836 27.3491 5.50023C27.3233 5.42766 27.2976 5.35505 27.272 5.28241C27.1374 4.90057 26.9978 4.531 26.8025 4.1723C26.7882 4.14595 26.774 4.1196 26.7593 4.09245C26.6061 3.81368 26.431 3.56341 26.2039 3.33164C26.1822 3.30903 26.1822 3.30903 26.16 3.28596C25.779 2.89404 25.3437 2.62785 24.8073 2.45985C24.782 2.45158 24.7566 2.44331 24.7305 2.43479C24.1463 2.27909 23.5214 2.44213 23.0045 2.70285C21.9599 3.25549 21.3918 4.20775 20.8556 5.16779C20.7447 5.36617 20.6315 5.56331 20.5177 5.76021C20.3306 6.08442 20.1459 6.40974 19.9617 6.73531C19.8274 6.97243 19.6927 7.20924 19.5549 7.44459C19.5225 7.50006 19.4904 7.55567 19.4585 7.61142C19.3818 7.74541 19.3019 7.87485 19.2129 8.00209C19.0444 8.23371 19.0444 8.23371 18.9943 8.50073C19.0384 8.63701 19.1218 8.75002 19.2067 8.86683C19.2949 8.99574 19.3618 9.13503 19.4328 9.27269C19.5586 9.50945 19.6878 9.74432 19.82 9.97796C19.9431 10.1956 20.0643 10.4142 20.1851 10.6329C20.3173 10.872 20.4499 11.111 20.5842 11.349C20.7185 11.5871 20.851 11.826 20.9832 12.0652C21.1161 12.3056 21.2494 12.5457 21.3843 12.7852C21.3971 12.8079 21.4098 12.8306 21.423 12.854C21.4829 12.9607 21.543 13.0674 21.6036 13.1738C21.6631 13.2783 21.7222 13.383 21.7813 13.4877C21.8001 13.5204 21.8188 13.5532 21.8382 13.5869C22.0382 13.9428 22.1212 14.2774 21.9933 14.6728C21.878 14.9621 21.6624 15.2181 21.3637 15.359C20.9549 15.5171 20.5957 15.5086 20.1851 15.35C19.7796 15.1375 19.5917 14.7638 19.3933 14.3906C19.3665 14.3409 19.3397 14.2913 19.3129 14.2417C19.2606 14.145 19.2085 14.0483 19.1565 13.9516C19.0773 13.8044 18.9959 13.6584 18.9132 13.513C18.7815 13.2802 18.6518 13.0464 18.5225 12.8124C18.3769 12.5492 18.2307 12.2863 18.0829 12.0241C17.8952 11.691 17.7102 11.3564 17.5249 11.0221C17.3446 11.3127 17.1726 11.6066 17.0058 11.9042C16.9406 12.0205 16.875 12.1366 16.8094 12.2527C16.7966 12.2755 16.7837 12.2984 16.7704 12.3219C16.4107 12.959 16.0559 13.5794 15.563 14.1357C15.5473 14.1536 15.5316 14.1715 15.5155 14.1899C15.1593 14.5949 14.7744 14.964 14.3326 15.2877C14.3077 15.3072 14.2828 15.3268 14.2571 15.3469C12.5568 16.6732 10.3251 17.1613 8.1534 16.9916C6.63813 16.8569 5.14897 16.3753 3.89117 15.5679C3.86246 15.5496 3.86246 15.5496 3.83317 15.531C3.18489 15.1157 2.56061 14.6108 2.07018 14.0358C2.02248 13.9801 1.97396 13.925 1.92444 13.8707C1.54229 13.4497 1.23587 12.975 0.964907 12.4855C0.952187 12.4625 0.939467 12.4396 0.926361 12.4159C0.351994 11.3637 0.000150763 10.1465 -0.00618476 8.96109C-0.00641801 8.93175 -0.00665075 8.90241 -0.00689106 8.87219C-0.00746998 8.77801 -0.00768473 8.68383 -0.00774349 8.58965C-0.00776593 8.55749 -0.00778938 8.52532 -0.0078125 8.49218C-0.00728983 8.02113 0.00470618 7.5629 0.100329 7.09904C0.106212 7.06956 0.112095 7.04007 0.118157 7.00969C0.499505 5.13896 1.52401 3.3529 3.0931 2.11736C3.12096 2.09512 3.12096 2.09512 3.14938 2.07243C4.6762 0.857917 6.6663 0.0991498 8.67961 0.0624105C8.70875 0.0617734 8.7379 0.0611362 8.76793 0.0604797C9.83321 0.0402024 10.8583 0.188326 11.8719 0.498308C11.8991 0.506561 11.9263 0.514814 11.9544 0.523317C13.0193 0.852398 13.9929 1.39311 14.8314 2.08622C14.8483 2.10006 14.8652 2.1139 14.8826 2.12816C16.1103 3.13883 16.7923 4.51513 17.5249 5.85362C17.6126 5.75134 17.6765 5.64335 17.7417 5.52743C17.7528 5.50769 17.764 5.48795 17.7755 5.46762C17.7994 5.42516 17.8233 5.38268 17.8472 5.34018C17.9107 5.22702 17.9746 5.11405 18.0384 5.00104C18.0512 4.97823 18.0641 4.95541 18.0774 4.93191C18.2496 4.62671 18.4249 4.32305 18.6002 4.0194C18.656 3.92238 18.7113 3.8251 18.7664 3.72777C19.1535 3.0471 19.5708 2.42177 20.1354 1.85842C20.2061 1.78723 20.274 1.71478 20.341 1.64059C20.4563 1.51698 20.5821 1.41212 20.7172 1.30783C20.7343 1.29434 20.7515 1.28085 20.7692 1.26695C22.8257 -0.347339 25.5385 -0.415009 27.5867 1.25322ZM4.26774 4.34318C4.13448 4.47802 4.01135 4.61872 3.89117 4.76388C3.8769 4.78092 3.86262 4.79797 3.84792 4.81553C2.77061 6.10985 2.3528 7.75139 2.54782 9.36947C2.70563 10.5128 3.18339 11.6103 3.99093 12.4855C4.01361 12.5101 4.03628 12.5348 4.05965 12.5602C4.13514 12.6403 4.2122 12.7188 4.29021 12.7968C4.33367 12.8406 4.33367 12.8406 4.37802 12.8853C5.39412 13.8852 6.83292 14.4646 8.28057 14.6338C8.3101 14.6373 8.33964 14.6408 8.37007 14.6444C9.89697 14.7929 11.3846 14.4167 12.6035 13.5441C12.6336 13.5229 12.6637 13.5016 12.6948 13.4798C13.4039 12.9598 13.904 12.321 14.3171 11.5795C14.383 11.4611 14.4495 11.343 14.5159 11.2249C14.529 11.2016 14.542 11.1784 14.5555 11.1544C14.6566 10.9744 14.7599 10.7955 14.8647 10.6174C15.0601 10.2844 15.2497 9.94859 15.4384 9.61223C15.556 9.40288 15.6747 9.19448 15.7995 8.98882C15.8201 8.95462 15.8406 8.92042 15.8618 8.88518C15.8998 8.82225 15.9384 8.7596 15.9776 8.6973C16.0025 8.65582 16.0025 8.65582 16.028 8.61349C16.05 8.57811 16.05 8.57811 16.0724 8.54201C16.123 8.37875 15.9962 8.21558 15.9173 8.07361C15.9065 8.05406 15.8957 8.03451 15.8846 8.01437C15.8496 7.95114 15.8143 7.88801 15.7791 7.82489C15.7547 7.78087 15.7303 7.73686 15.7059 7.69283C15.5674 7.44333 15.4282 7.19421 15.2878 6.94569C15.1892 6.77101 15.0922 6.59556 14.9955 6.41996C14.4194 5.33685 14.4194 5.33685 13.6676 4.35911C13.6441 4.33335 13.6206 4.30758 13.5964 4.28103C12.5926 3.20258 11.0401 2.53389 9.52157 2.43259C7.53973 2.33299 5.65605 3.00978 4.26774 4.34318ZM56.9297 3.14483C56.9094 3.15498 56.8891 3.16514 56.8682 3.1756C56.4468 3.3871 56.0799 3.64737 55.7326 3.95435C55.709 3.97482 55.6854 3.99529 55.661 4.01638C55.2896 4.34878 55.0198 4.78673 54.8722 5.24648C54.8658 5.26598 54.8595 5.28549 54.853 5.30559C54.7341 5.70756 54.7247 6.12108 54.7233 6.53488C54.7228 6.58905 54.7224 6.64322 54.7219 6.69739C54.7205 6.87339 54.7198 7.0494 54.7192 7.22541C54.7189 7.28645 54.7186 7.3475 54.7184 7.40855C54.7171 7.69529 54.7161 7.98202 54.7156 8.26876C54.7149 8.59809 54.7132 8.92739 54.7105 9.25671C54.7085 9.51252 54.7075 9.76833 54.7073 10.0242C54.7071 10.1764 54.7066 10.3286 54.7049 10.4809C54.7033 10.6241 54.703 10.7674 54.7037 10.9106C54.7038 10.9628 54.7033 11.0149 54.7024 11.0671C54.696 11.4515 54.7869 11.7219 55.001 12.0496C55.0128 12.0676 55.0245 12.0856 55.0366 12.1041C55.1924 12.3403 55.3724 12.5561 55.5663 12.7657C55.5811 12.7816 55.5958 12.7976 55.611 12.814C56.6404 13.917 58.0711 14.5523 59.6232 14.665C61.2442 14.7598 62.8944 14.2605 64.1456 13.295C64.1645 13.2807 64.1833 13.2664 64.2027 13.2516C65.5463 12.2271 66.2658 10.7564 66.4596 9.15994C66.5605 8.14131 66.4062 7.10613 65.9745 6.16497C65.9641 6.14221 65.9537 6.11945 65.943 6.096C65.2421 4.58748 63.9294 3.46119 62.3167 2.83347C60.5606 2.20451 58.5858 2.30068 56.9297 3.14483Z" fill="#1F1F1F"/>
</g>
<defs>
<clipPath id="clip0_3268_3660">
<rect width="69" height="24.8462" fill="white"/>
</clipPath>
</defs>
</svg>
